<svg width="120" height="80" viewBox="0 0 120 80" fill="none" xmlns="http://www.w3.org/2000/svg">
<circle cx="94.5" cy="55.5" r="22" stroke="#AAAAAA" stroke-width="5"/>
<circle cx="25.5" cy="55.5" r="22" stroke="#AAAAAA" stroke-width="5"/>
<rect x="71.9188" y="17" width="5" height="43" rx="2.5" transform="rotate(14 71.9188 17)" fill="#D9D9D9"/>
<rect x="71" y="18.4727" width="5" height="47" rx="2.5" transform="rotate(-29.6394 71 18.4727)" fill="#D9D9D9"/>
<rect x="35" y="20.9992" width="5" height="41" rx="2.5" transform="rotate(-89 35 20.9992)" fill="#D9D9D9"/>
<rect x="32.7778" y="23.4984" width="5" height="48" rx="2.5" transform="rotate(-39 32.7778 23.4984)" fill="#D9D9D9"/>
<rect x="62.1745" y="59.5674" width="5" height="35" rx="2.5" transform="rotate(-92 62.1745 59.5674)" fill="#D9D9D9"/>
<path d="M35.4846 12.3622C35.7538 11.1285 37.0699 10.4352 38.2396 10.911V10.911C39.1829 11.2947 39.6973 12.3166 39.4437 13.3028L33.5698 36.1429L30.1082 47.1558C30.0362 47.3848 29.9438 47.6069 29.8319 47.8193L25.3662 56.3041C25.141 56.7321 24.6972 57 24.2136 57V57C23.2205 57 22.5927 55.9331 23.075 55.0649L26.7768 48.4018C26.9251 48.1348 27.0424 47.8517 27.1263 47.5581L30 37.5L35.4846 12.3622Z" fill="#D9D9D9"/>
<rect x="32.084" y="5" width="11" height="3" rx="1.5" transform="rotate(44 32.084 5)" fill="#D9D9D9"/>
<rect x="30" y="5" width="17" height="4" rx="2" fill="#D9D9D9"/>
<rect x="78.2653" y="10.0261" width="13" height="3" rx="1.5" transform="rotate(110 78.2653 10.0261)" fill="#D9D9D9"/>
<path d="M63 9.46252C63 8.64324 63.6424 7.96788 64.4607 7.92697L77.4782 7.27609C77.8235 7.25883 78.1632 7.18202 78.4822 7.04906L82.8462 5.23077C84.8222 4.40741 87 5.85926 87 8V8C87 9.65685 85.6569 11 84 11H64.5375C63.6884 11 63 10.3116 63 9.46252V9.46252Z" fill="#905037"/>
</svg>
